<?xml version="1.0" encoding="UTF-8" standalone="no"?>
<!-- Created with Inkscape (http://www.inkscape.org/) -->

<svg
   width="120.89015mm"
   height="40.978233mm"
   viewBox="0 0 120.89015 40.978233"
   version="1.1"
   id="svg1"
   xml:space="preserve"
   xmlns="http://www.w3.org/2000/svg"
   xmlns:svg="http://www.w3.org/2000/svg"><defs
     id="defs1" /><g
     id="layer1"
     transform="translate(-41.936459,-127.39975)"><path
       style="fill:#ffffff;fill-opacity:1"
       d="m 123.16354,168.14021 c -0.65484,-0.11266 -1.89692,-0.45445 -2.76017,-0.75954 -0.86325,-0.30509 -2.20144,-0.93767 -2.97374,-1.40573 -0.77231,-0.46807 -1.9422,-1.39725 -2.59976,-2.06485 -1.19557,-1.21382 -1.19557,-1.21382 -0.003,-4.99206 0.65602,-2.07802 1.19275,-3.82914 1.19275,-3.89136 0,-0.0622 0.15832,-0.11313 0.35182,-0.11313 0.22425,0 0.51276,0.7435 0.7957,2.05052 0.24414,1.12779 0.72588,2.65551 1.07053,3.39494 0.34466,0.73943 1.06656,1.77165 1.60422,2.29382 0.53766,0.52216 1.41565,1.16159 1.95109,1.42095 0.53543,0.25935 1.75003,0.51895 2.69911,0.5769 0.94907,0.0579 2.21065,-0.0253 2.80349,-0.1849 0.59285,-0.15963 1.58127,-0.65488 2.19649,-1.10055 0.72754,-0.52702 1.34212,-1.29039 1.75799,-2.18359 0.49729,-1.06808 0.63997,-1.81748 0.64198,-3.37187 0.002,-1.62679 -0.12576,-2.25611 -0.68733,-3.38304 -0.42604,-0.85496 -1.15199,-1.73729 -1.89806,-2.30696 -0.66449,-0.50737 -1.9316,-1.26603 -2.81582,-1.68591 -0.88422,-0.41987 -2.88994,-1.36346 -4.45717,-2.09686 -2.11435,-0.98943 -3.25104,-1.71646 -4.4059,-2.81801 -0.9658,-0.92122 -1.77426,-1.99098 -2.13053,-2.81916 -0.31578,-0.73404 -0.68921,-2.04916 -0.82986,-2.92249 -0.16972,-1.0539 -0.16266,-2.26811 0.021,-3.61072 0.17079,-1.24855 0.58354,-2.65051 1.07829,-3.66258 0.47833,-0.97848 1.28877,-2.06856 2.0097,-2.70315 0.66447,-0.58489 1.88049,-1.31704 2.70226,-1.62699 0.82177,-0.30996 2.3871,-0.62638 3.4785,-0.70317 1.11715,-0.0786 2.65436,-3.6e-4 3.51742,0.17904 0.84317,0.17526 2.45052,0.7782 3.57187,1.33987 1.12136,0.56167 2.4417,1.43742 2.93408,1.94611 0.89525,0.92489 0.89525,0.92489 -0.0146,4.57999 -0.63547,2.55293 -1.02306,3.6551 -1.28536,3.6551 -0.23636,0 -0.52972,-0.5883 -0.7916,-1.58749 -0.22884,-0.87313 -0.7652,-2.22797 -1.19191,-3.01077 -0.42861,-0.78626 -1.28986,-1.81574 -1.92432,-2.30019 -0.69549,-0.53104 -1.70838,-0.99316 -2.56804,-1.17162 -0.78076,-0.16209 -1.87375,-0.21223 -2.42888,-0.11144 -0.55512,0.1008 -1.43334,0.39626 -1.9516,0.65658 -0.51826,0.26033 -1.25756,0.92884 -1.64289,1.48559 -0.38533,0.55674 -0.83437,1.63734 -0.99787,2.40132 -0.21977,1.02695 -0.21991,1.75118 -5.3e-4,2.77813 0.1632,0.76398 0.57845,1.81586 0.92277,2.3375 0.34432,0.52164 1.23151,1.33697 1.97154,1.81184 0.74003,0.47488 2.94317,1.55778 4.89587,2.40646 1.9527,0.84867 4.0077,1.83289 4.56667,2.18715 0.55897,0.35426 1.59028,1.25948 2.29179,2.01159 0.70152,0.75212 1.5032,1.88226 1.7815,2.51142 0.27831,0.62917 0.63169,2.02425 0.78529,3.10019 0.15359,1.07593 0.2096,2.43249 0.12446,3.01458 -0.0851,0.58208 -0.28465,1.65364 -0.44335,2.38125 -0.1587,0.7276 -0.57718,1.89888 -0.92996,2.60284 -0.35278,0.70395 -1.14905,1.78755 -1.76949,2.40799 -0.62044,0.62043 -1.89307,1.50235 -2.82808,1.95982 -0.93501,0.45747 -2.34135,0.95145 -3.12519,1.09774 -0.78385,0.14629 -1.79588,0.25198 -2.24896,0.23486 -0.45308,-0.0171 -1.35956,-0.1233 -2.01441,-0.23596 z m -81.083875,-0.77359 c -0.08393,-0.13581 0.266227,-1.0089 0.778135,-1.9402 0.930743,-1.69328 0.930743,-1.69328 0.930063,-15.69422 -6.81e-4,-14.00095 -6.81e-4,-14.00095 -0.926042,-15.53555 -0.508949,-0.84404 -0.925362,-1.64231 -0.925362,-1.77395 0,-0.13164 0.386954,-0.30577 0.859896,-0.38695 0.472943,-0.0812 2.049112,-0.32016 3.502597,-0.53106 1.453486,-0.2109 2.726791,-0.2987 2.829567,-0.19511 0.102776,0.10359 1.659064,3.58162 3.458419,7.72896 1.799355,4.14735 3.8598,8.9375 4.578767,10.64478 0.718967,1.70729 1.41983,3.06873 1.557473,3.02544 0.137643,-0.0433 2.340299,-5.38993 4.894791,-11.8814 4.644532,-11.80267 4.644532,-11.80267 5.835157,-11.94615 0.654843,-0.0789 2.17289,-0.21944 3.373437,-0.31228 1.909816,-0.14769 2.182813,-0.11489 2.182813,0.26222 0,0.23706 -0.434423,1.29125 -0.965384,2.34264 -0.965383,1.91163 -0.965383,1.91163 -0.806406,17.12517 0.158976,15.21354 0.158976,15.21354 1.072328,16.9116 0.502344,0.93393 0.852488,1.85667 0.778099,2.05052 -0.104239,0.27164 -1.03522,0.35246 -4.06008,0.35246 -2.158655,0 -3.990563,-0.10636 -4.070906,-0.23636 -0.08034,-0.13 0.26759,-1.05273 0.773186,-2.05052 0.919265,-1.81416 0.919265,-1.81416 0.924214,-14.05114 0.0027,-6.73034 -0.08435,-12.23588 -0.193489,-12.23455 -0.10914,0.001 -1.792874,4.0197 -3.74163,8.92969 -1.948756,4.90999 -4.019045,10.08812 -4.600642,11.50695 -1.031086,2.51537 -1.078839,2.57968 -1.915342,2.57968 -0.857891,0 -0.857891,0 -3.030025,-5.09323 -1.194673,-2.80127 -3.25563,-7.56377 -4.579904,-10.58333 -1.324274,-3.01956 -2.504145,-5.4901 -2.621936,-5.4901 -0.117792,0 -0.214166,5.13956 -0.214166,11.42125 0,11.42126 0,11.42126 0.930742,13.11454 0.511908,0.9313 0.862069,1.80439 0.778135,1.9402 -0.08393,0.13581 -1.745897,0.24692 -3.693252,0.24692 -1.947355,0 -3.609319,-0.11111 -3.693253,-0.24692 z m 45.458311,-0.15646 c -0.08514,-0.22186 0.06743,-1.02031 0.339033,-1.77434 0.36921,-1.02501 0.660741,-1.41731 1.155283,-1.55462 0.363802,-0.10101 3.045982,-0.19553 5.960399,-0.21003 4.369736,-0.0217 5.400779,0.045 5.879659,0.38038 0.32202,0.22554 0.75876,1.00625 0.98035,1.75244 0.2198,0.74013 0.33513,1.45006 0.25629,1.57762 -0.0788,0.12756 -3.354742,0.23193 -7.279783,0.23193 -6.150589,0 -7.157823,-0.0557 -7.291231,-0.40338 z m 54.152404,-0.0596 c 0.003,-0.25466 0.42003,-1.2314 0.92605,-2.17053 0.92003,-1.7075 0.92003,-1.7075 0.92003,-16.46593 0,-14.75843 0,-14.75843 -0.97945,-16.73787 -0.5387,-1.08869 -0.90424,-2.05465 -0.81231,-2.14658 0.0919,-0.0919 2.46745,0.0959 5.27893,0.41738 2.81148,0.32148 7.36917,0.89892 10.1282,1.28319 5.01642,0.69867 5.01642,0.69867 5.19041,1.54938 0.0957,0.46789 0.25523,1.56883 0.35453,2.44652 0.13866,1.22552 0.10076,1.59564 -0.16332,1.59512 -0.18913,-3.8e-4 -1.00681,-0.40045 -1.81707,-0.88906 -1.33196,-0.8032 -1.83927,-0.93174 -5.29166,-1.34078 -2.10016,-0.24882 -4.56305,-0.54284 -5.4731,-0.65337 -0.91004,-0.11052 -1.71371,-0.14187 -1.78594,-0.0696 -0.0722,0.0722 -0.13131,2.67131 -0.13131,5.77576 0,4.32777 0.0772,5.64943 0.33073,5.6658 0.1819,0.0118 2.1762,0.17254 4.43177,0.35731 3.93612,0.32244 4.16718,0.31376 5.74554,-0.21572 1.07644,-0.36111 1.73281,-0.46169 1.90019,-0.29116 0.16471,0.16781 0.10357,1.27255 -0.17183,3.10478 -0.3064,2.03848 -0.53117,2.84427 -0.79336,2.84427 -0.20121,0 -0.79504,-0.32743 -1.31961,-0.72761 -0.90278,-0.6887 -1.18829,-0.7437 -5.34016,-1.02871 -2.41252,-0.16562 -4.47569,-0.24789 -4.58483,-0.18283 -0.10914,0.0651 -0.19844,3.37868 -0.19844,7.36359 v 7.24529 l 5.49011,0.0826 c 5.17929,0.0779 5.57578,0.0488 7.00348,-0.51404 0.83236,-0.32814 1.71078,-0.59662 1.95205,-0.59662 0.35778,0 0.41038,0.18294 0.28524,0.99219 -0.0844,0.5457 -0.23399,1.61727 -0.33248,2.38125 -0.17907,1.38906 -0.17907,1.38906 -10.46373,1.38906 -9.62082,0 -10.28428,-0.0299 -10.27866,-0.46302 z m -49.483088,-7.48112 c -0.654844,-0.13663 -2.041286,-0.66758 -3.080983,-1.17991 -1.306593,-0.64385 -2.334519,-1.41126 -3.328649,-2.48504 -0.79106,-0.85444 -1.707288,-2.12579 -2.036062,-2.82523 -0.328775,-0.69943 -0.763581,-2.05387 -0.966237,-3.00985 -0.267737,-1.263 -0.36972,-3.92491 -0.373058,-9.73743 -0.0046,-7.99927 -0.0046,-7.99927 -0.984047,-9.9787 -0.538698,-1.0887 -0.890907,-2.06799 -0.782686,-2.17621 0.108222,-0.10822 2.00578,-0.28676 4.216796,-0.39676 2.508749,-0.12481 4.115967,-0.10406 4.275225,0.0552 0.163874,0.16387 -0.101104,0.98897 -0.740461,2.30568 -0.995658,2.05048 -0.995658,2.05048 -0.912852,11.04631 0.08281,8.99583 0.08281,8.99583 0.766227,10.45265 0.375881,0.80125 1.057656,1.83106 1.515054,2.28846 0.457399,0.45739 1.400016,1.10817 2.094704,1.44617 0.819465,0.3987 1.895191,0.65114 3.062896,0.71875 1.257608,0.0728 2.148283,-0.0289 2.956492,-0.33752 0.636168,-0.24296 1.630925,-0.78529 2.210569,-1.20518 0.71834,-0.52036 1.3355,-1.33516 1.9383,-2.55901 0.8844,-1.79556 0.8844,-1.79556 0.96604,-10.97213 0.0816,-9.17656 0.0816,-9.17656 -0.8774,-11.08097 -0.52747,-1.04742 -0.89537,-2.07032 -0.81755,-2.27312 0.10838,-0.28243 0.77811,-0.36804 2.86177,-0.36581 1.49616,0.002 3.16677,0.0767 3.71247,0.16691 0.59365,0.0981 0.99219,0.31216 0.99219,0.53286 0,0.20287 -0.41672,1.19635 -0.92604,2.20773 -0.92604,1.83888 -0.92604,1.83888 -0.92604,10.65343 0,7.07838 -0.0802,9.12229 -0.40693,10.37687 -0.22381,0.85927 -0.76358,2.18567 -1.19949,2.94756 -0.43591,0.76188 -1.43416,1.97164 -2.21835,2.68834 -0.98996,0.90476 -2.00687,1.51848 -3.326775,2.00772 -1.327165,0.49193 -2.591258,0.73964 -4.187743,0.82063 -1.257715,0.0638 -2.822536,0.004 -3.47738,-0.1324 z"
       id="path1" /></g></svg>
