<?xml version="1.0" encoding="UTF-8" standalone="no"?>
<!-- Created with Inkscape (http://www.inkscape.org/) -->

<svg
   width="28.222252mm"
   height="27.674088mm"
   viewBox="0 0 28.222252 27.674088"
   version="1.1"
   id="svg1"
   xml:space="preserve"
   xmlns="http://www.w3.org/2000/svg"
   xmlns:svg="http://www.w3.org/2000/svg"><defs
     id="defs1" /><g
     id="layer1"
     transform="translate(59.376514,-118.78817)"><path
       style="fill:#f37a4e;fill-opacity:1"
       d="m -49.950492,146.03661 c -0.829804,-0.27443 -2.030371,-0.80467 -2.667926,-1.1783 -0.637555,-0.37363 -1.863625,-1.43325 -2.724599,-2.35471 -0.860974,-0.92147 -1.950642,-2.40002 -2.421485,-3.28569 -0.470842,-0.88566 -1.051128,-2.37076 -1.289523,-3.30021 -0.305652,-1.19168 -0.386539,-2.23597 -0.27435,-3.54201 0.0875,-1.01864 0.345977,-2.56645 0.574388,-3.43958 0.228411,-0.87312 0.693666,-2.1971 1.033899,-2.94217 0.340233,-0.74507 1.078762,-1.86412 1.641176,-2.48679 0.562414,-0.62266 1.847216,-1.71132 2.855116,-2.41923 1.0079,-0.70791 2.413472,-1.45963 3.123493,-1.67049 0.710021,-0.21085 2.623813,-0.46198 4.252871,-0.55806 2.342201,-0.13814 3.259347,-0.0858 4.383437,0.25005 0.781832,0.2336 2.202045,0.86123 3.156029,1.39473 0.953983,0.5335 2.716994,1.91322 3.917802,3.06604 1.64529,1.57954 2.286302,2.39838 2.601343,3.32297 0.229932,0.67481 0.49074,2.18444 0.579574,3.35473 0.135422,1.78405 0.04586,2.59799 -0.554359,5.03822 -0.467252,1.89963 -1.028635,3.42612 -1.616425,4.39532 -0.495302,0.8167 -1.421745,1.96533 -2.058762,2.55251 -0.637017,0.58718 -1.625107,1.37658 -2.195755,1.75422 -0.570648,0.37763 -2.045092,1.06029 -3.276543,1.51701 -1.82142,0.67553 -2.732455,0.84905 -4.884833,0.9304 -2.083158,0.0787 -2.966688,-0.006 -4.154568,-0.39896 z m 7.858734,-1.28576 c 1.164167,-0.36424 2.592917,-0.90022 3.175,-1.19107 0.582084,-0.29085 1.692453,-1.01294 2.467487,-1.60465 0.775035,-0.59171 1.757695,-1.58242 2.183689,-2.20158 0.474026,-0.68897 0.99296,-2.03065 1.337506,-3.45805 0.309634,-1.28277 0.570372,-3.16574 0.579418,-4.18439 0.009,-1.01865 -0.141665,-2.66932 -0.334911,-3.66816 -0.324283,-1.67615 -0.490006,-1.97024 -2.150714,-3.81669 -0.989647,-1.10034 -2.710852,-2.62704 -3.824901,-3.39269 -1.275709,-0.87674 -2.511177,-1.49622 -3.337394,-1.67341 -0.721518,-0.15474 -1.998498,-0.28134 -2.837734,-0.28134 -0.839237,0 -2.227573,0.12971 -3.085193,0.28825 -0.85762,0.15854 -2.099878,0.56771 -2.760572,0.90926 -0.660695,0.34156 -2.171089,1.45447 -3.35643,2.47314 -1.571847,1.35083 -2.338062,2.23263 -2.830904,3.25793 -0.377153,0.78462 -0.798554,2.32031 -0.953688,3.47546 -0.152873,1.13832 -0.275439,2.80519 -0.27237,3.70417 0.0035,1.02369 0.236384,2.28832 0.623207,3.38411 0.339694,0.96229 1.051863,2.40383 1.582598,3.20341 0.530734,0.79959 1.589744,2.04248 2.353355,2.762 0.763612,0.71951 1.960511,1.58374 2.659776,1.9205 0.699266,0.33676 1.889891,0.70609 2.645834,0.82073 0.755943,0.11464 1.969754,0.14698 2.697358,0.0719 0.727604,-0.0751 2.275417,-0.43457 3.439583,-0.79881 z m -6.482291,-1.14477 c -0.363802,-0.1505 -0.867171,-0.53625 -1.118596,-0.85722 -0.251426,-0.32097 -0.459785,-0.94604 -0.463021,-1.38904 -0.0033,-0.45796 0.365097,-1.40021 0.854013,-2.18404 0.472942,-0.75822 1.336145,-2.08682 1.918229,-2.95244 0.582083,-0.86563 1.177396,-1.5393 1.322916,-1.49705 0.163135,0.0474 0.231127,1.23462 0.177326,3.09644 -0.04799,1.6608 -0.209142,3.49588 -0.358111,4.07796 -0.14897,0.58209 -0.40736,1.14581 -0.574201,1.25272 -0.166841,0.10692 0.194164,0.19621 0.802233,0.19844 0.664837,0.002 1.274165,-0.16453 1.528464,-0.41883 0.282326,-0.28233 0.378231,-0.70005 0.288539,-1.25677 -0.07389,-0.45864 -0.317314,-2.13155 -0.540944,-3.71759 -0.22363,-1.58604 -0.360521,-2.92978 -0.304202,-2.9861 0.05632,-0.0563 0.30579,0.70557 0.554381,1.69308 0.24859,0.98751 0.518096,2.80955 0.598902,4.04899 0.125938,1.9317 0.08127,2.308 -0.312809,2.63505 -0.261423,0.21696 -1.161094,0.41357 -2.085695,0.45579 -0.894281,0.0408 -1.923622,-0.0489 -2.287424,-0.19939 z m 0.51166,-3.45138 c 0.465877,-1.46962 0.891599,-2.62748 0.946049,-2.57303 0.05445,0.0545 -0.204673,1.15254 -0.575828,2.4402 -0.554844,1.92494 -0.61091,2.3817 -0.315334,2.56898 0.197722,0.12528 0.495584,0.22961 0.661916,0.23183 0.166332,0.002 0.378622,-0.19452 0.471757,-0.43722 0.09313,-0.24271 0.244366,-1.76075 0.336071,-3.37344 0.155183,-2.72898 0.13585,-2.90667 -0.279002,-2.56432 -0.245157,0.20232 -1.038494,1.25409 -1.762973,2.33727 -0.773248,1.1561 -1.317233,2.26622 -1.317233,2.6881 0,0.39526 0.142875,0.86154 0.3175,1.03617 0.174625,0.17462 0.396819,0.3175 0.493764,0.3175 0.09695,0 0.557436,-1.20242 1.023313,-2.67204 z m 8.051336,2.34767 c -0.31082,-0.1423 -0.712369,-0.57402 -0.892331,-0.95937 -0.179961,-0.38535 -0.729325,-1.88489 -1.220809,-3.33231 -0.491483,-1.44742 -0.893606,-2.84641 -0.893606,-3.10886 0,-0.26245 0.102585,-0.47718 0.227968,-0.47718 0.125382,0 1.316007,1.17913 2.645833,2.62029 1.329826,1.44116 2.417865,2.79193 2.417865,3.0017 0,0.20978 -0.211078,0.57244 -0.469063,0.80591 -0.257986,0.23347 -0.599179,0.34122 -0.758208,0.23945 -0.159029,-0.10178 -0.543565,-0.66131 -0.854525,-1.24339 -0.31096,-0.58208 -0.758195,-1.32622 -0.993856,-1.65365 -0.235661,-0.32742 -0.358857,-0.59531 -0.27377,-0.59531 0.08509,0 0.641877,0.71739 1.23731,1.59421 0.595433,0.87681 1.195182,1.52463 1.332776,1.43959 0.137593,-0.085 0.244442,-0.29641 0.237442,-0.46973 -0.007,-0.17331 -0.961178,-1.32714 -2.120395,-2.56407 -1.713589,-1.82846 -2.062136,-2.10055 -1.864147,-1.45521 0.133937,0.43657 0.551391,1.82019 0.927676,3.07472 0.376284,1.25453 0.857976,2.42523 1.070427,2.60155 0.21245,0.17632 0.600346,0.2515 0.861991,0.16706 0.261644,-0.0844 0.922202,-0.56445 1.467905,-1.0667 0.636744,-0.58605 0.992187,-1.14937 0.992187,-1.57246 0,-0.49876 -0.462627,-1.03351 -1.900082,-2.19631 -1.045045,-0.84536 -2.324967,-1.93457 -2.844271,-2.42046 -0.519304,-0.48589 -0.765595,-0.79244 -0.547313,-0.68121 0.218281,0.11122 1.230312,0.82843 2.248958,1.5938 1.018646,0.76537 2.239036,1.74982 2.711979,2.18766 0.472943,0.43783 0.859896,0.98728 0.859896,1.22099 0,0.23372 -0.178469,0.77005 -0.396597,1.19187 -0.218128,0.42181 -0.783675,1.05318 -1.256771,1.40303 -0.473095,0.34986 -0.979236,0.69843 -1.124757,0.77461 -0.145521,0.0762 -0.518891,0.0221 -0.829712,-0.12022 z m -14.769831,-3.67971 c -0.383694,-0.456 -0.930059,-1.28469 -1.214145,-1.84155 -0.284086,-0.55685 -0.51652,-1.43086 -0.51652,-1.94225 0,-0.74736 0.142759,-1.00308 0.727604,-1.30337 0.400182,-0.20547 1.680104,-0.67322 2.844271,-1.03944 1.164166,-0.36622 2.680841,-0.75026 3.370388,-0.85342 1.040466,-0.15566 1.28272,-0.112 1.424195,0.25668 0.09376,0.24433 0.06317,0.55155 -0.06798,0.6827 -0.13115,0.13115 -1.713063,0.69107 -3.515363,1.24428 -1.859464,0.57075 -3.395629,1.19403 -3.55137,1.44093 -0.176859,0.28038 -0.185926,0.62035 -0.0255,0.95601 0.236984,0.49584 0.349182,0.4651 2.331983,-0.63884 1.145662,-0.63786 2.157693,-1.15924 2.248959,-1.15864 0.09126,6.1e-4 -0.883689,0.67053 -2.166565,1.48872 -2.332502,1.48762 -2.332502,1.48762 -1.604145,2.24786 0.400597,0.41813 0.879544,0.76024 1.064327,0.76024 0.184784,0 1.00134,-0.82352 1.814569,-1.83003 0.81323,-1.00652 2.008986,-2.26465 2.657237,-2.79584 0.648252,-0.5312 1.178639,-0.89359 1.178639,-0.80533 0,0.0883 -0.787538,1.01897 -1.750083,2.06823 -0.962546,1.04927 -2.174096,2.35424 -2.692335,2.89995 -0.518239,0.5457 -1.148868,0.99219 -1.401398,0.99219 -0.252529,0 -0.773076,-0.37309 -1.156769,-0.82908 z m 1.444335,-4.93896 c 0.945885,-0.29869 2.417198,-0.73746 3.269584,-0.97505 0.852386,-0.23759 1.491397,-0.49038 1.420024,-0.56175 -0.07137,-0.0714 -0.887843,0.006 -1.814376,0.17296 -0.926534,0.1665 -2.577576,0.61889 -3.668982,1.00532 -1.681394,0.59532 -1.998324,0.80359 -2.075733,1.36406 -0.09136,0.66145 -0.09136,0.66145 0.529167,0.0995 0.341288,-0.30908 1.39443,-0.80634 2.340316,-1.10504 z m 16.271875,1.42268 c -0.582084,-0.18766 -1.891771,-0.76663 -2.910417,-1.28659 -1.494523,-0.76287 -1.755165,-0.98288 -1.350066,-1.13958 0.27611,-0.1068 1.347673,5.2e-4 2.38125,0.2385 1.033578,0.23797 2.325717,0.50096 2.87142,0.58442 0.903173,0.13814 0.991824,0.0973 0.988136,-0.45555 -0.0022,-0.33402 -0.102072,-0.76183 -0.221874,-0.95069 -0.17188,-0.27096 -0.575619,-0.28533 -1.914178,-0.0681 -0.932995,0.15138 -2.172605,0.27431 -2.754688,0.27319 -0.582083,-0.001 -1.215346,-0.10162 -1.407251,-0.2233 -0.21048,-0.13346 0.925058,-0.34882 2.862,-0.5428 2.555392,-0.25591 3.292057,-0.25421 3.608349,0.008 0.303933,0.25224 0.357504,0.64542 0.227715,1.67132 -0.09334,0.73782 -0.228657,1.54985 -0.300698,1.80451 -0.07204,0.25467 -0.331319,0.45506 -0.576174,0.44533 -0.244855,-0.01 -0.921441,-0.17125 -1.503524,-0.35891 z m 1.852083,-0.41714 c 0.08994,-0.14553 -0.05186,-0.26641 -0.315114,-0.26864 -0.381515,-0.003 -0.403322,-0.0517 -0.10747,-0.23904 0.246029,-0.15577 -0.177852,-0.26591 -1.257252,-0.32668 -0.895631,-0.0504 -1.628203,-0.0561 -1.627938,-0.0126 2.65e-4,0.0435 0.506498,0.30877 1.124961,0.5895 0.618464,0.28073 1.325812,0.51303 1.571885,0.51623 0.246074,0.003 0.520991,-0.11325 0.610928,-0.25877 z m -10.36781,-1.90647 c -0.146118,-0.18837 -0.339935,-0.55082 -0.430703,-0.80544 -0.125288,-0.35146 0.06376,-0.55855 0.784989,-0.8599 0.522513,-0.21832 0.995014,-0.39694 1.050003,-0.39694 0.05499,0 0.09998,0.1802 0.09998,0.40046 0,0.22026 0.144321,0.63156 0.320714,0.91401 0.176392,0.28245 0.265689,0.56458 0.198437,0.62696 -0.06725,0.0624 -0.490257,0.19215 -0.940012,0.28838 -0.537768,0.11506 -0.908695,0.0577 -1.083408,-0.16753 z m -10.809467,-2.07945 c -0.09577,-0.15497 -0.09264,-0.72051 0.007,-1.25677 0.0996,-0.53626 0.42788,-1.41599 0.729516,-1.95496 0.301637,-0.53896 0.726657,-1.04832 0.944489,-1.13191 0.217833,-0.0836 1.040641,0.23832 1.828463,0.71535 0.787822,0.47703 1.623801,1.0785 1.857731,1.3366 0.298644,0.3295 0.342091,0.55251 0.145868,0.74873 -0.196222,0.19623 -0.787644,0.0762 -1.985653,-0.40312 -0.938407,-0.37542 -1.8814,-0.68259 -2.09554,-0.68259 -0.214139,0 -0.53222,0.14288 -0.706845,0.3175 -0.174624,0.17463 -0.317499,0.40556 -0.317499,0.5132 0,0.10763 0.446484,0.2424 0.992187,0.29948 0.992187,0.10378 0.992187,0.10378 0.02831,0.14826 -0.626219,0.0289 -1.023178,0.19901 -1.133152,0.4856 -0.0931,0.24261 -0.07368,0.53671 0.04316,0.65355 0.11684,0.11684 0.864884,0.0388 1.66232,-0.17339 0.797435,-0.21221 1.866602,-0.37513 2.375924,-0.36205 0.643377,0.0165 0.239569,0.17339 -1.322916,0.51392 -1.236927,0.26958 -2.39076,0.49559 -2.564073,0.50225 -0.173313,0.007 -0.393473,-0.11469 -0.489246,-0.26965 z m 4.508527,-2.49667 c -0.436562,-0.36251 -1.191054,-0.91381 -1.676647,-1.2251 -0.882897,-0.56599 -0.882897,-0.56599 -1.447859,-0.001 -0.548307,0.54831 -0.549579,0.56528 -0.04314,0.57559 0.286999,0.006 1.176661,0.29872 1.977025,0.65083 0.800365,0.35212 1.574271,0.6444 1.719792,0.64952 0.145521,0.005 -0.0926,-0.28729 -0.529167,-0.64981 z m 9.549629,2.44769 c 0.103483,-0.1819 0.378401,-0.55538 0.610928,-0.82995 0.41117,-0.48551 0.39953,-0.48732 -0.42398,-0.0661 -0.465716,0.23819 -0.928964,0.43307 -1.029439,0.43307 -0.100474,0 0.362519,-0.47991 1.028876,-1.06646 0.666356,-0.58655 1.824464,-1.8367 2.573573,-2.77812 0.979589,-1.23107 1.536039,-1.71167 1.981796,-1.71167 0.340878,0 0.816847,0.19707 1.05771,0.43793 0.240863,0.24086 0.549663,0.73181 0.686221,1.09098 0.136559,0.35918 0.172137,1.05898 0.07906,1.55511 -0.124439,0.66332 -0.458618,1.10037 -1.262635,1.65135 -0.601374,0.41211 -1.766576,0.94399 -2.589337,1.18196 -0.822762,0.23797 -1.812054,0.43267 -2.198428,0.43267 -0.485956,0 -0.644501,-0.10195 -0.514347,-0.33073 z m 4.242208,-1.23503 c 0.600511,-0.2727 1.173084,-0.62727 1.272386,-0.78794 0.0993,-0.16067 0.124681,-0.29213 0.0564,-0.29213 -0.06828,0 -0.878981,0.35709 -1.801552,0.79354 -0.922571,0.43644 -1.439277,0.79102 -1.148236,0.78794 0.291042,-0.003 1.020494,-0.22872 1.621004,-0.50141 z m -0.213262,-2.00612 c 0.894003,-0.58208 1.693423,-1.23329 1.776489,-1.44714 0.08307,-0.21385 0.06721,-0.30499 -0.03523,-0.20255 -0.102444,0.10244 -0.336108,-0.0187 -0.519254,-0.26914 -0.312909,-0.42792 -0.367153,-0.42448 -0.899325,0.0571 -0.311482,0.28189 -0.986191,1.09694 -1.499355,1.81122 -0.513163,0.71429 -0.82407,1.25598 -0.690904,1.20376 0.133166,-0.0522 0.973577,-0.57119 1.86758,-1.15328 z m 1.634967,0.0716 c 0,-0.15486 -0.168119,-0.12915 -0.396875,0.0607 -0.218282,0.18115 -0.396875,0.37059 -0.396875,0.42096 0,0.0504 0.178593,0.0231 0.396875,-0.0607 0.218281,-0.0838 0.396875,-0.2732 0.396875,-0.42097 z m -10.158776,1.95758 c -0.07471,-0.12088 -0.306162,-0.74596 -0.514336,-1.38906 -0.208174,-0.6431 -0.509391,-1.72059 -0.669372,-2.39442 -0.159981,-0.67383 -0.526414,-1.77463 -0.814295,-2.44623 -0.499093,-1.16434 -0.554624,-1.20687 -1.194779,-0.9152 -0.369247,0.16824 -0.671359,0.40303 -0.671359,0.52175 0,0.11872 0.535781,1.01473 1.190625,1.99114 0.654844,0.97641 1.190625,1.89869 1.190625,2.04951 0,0.15082 -0.19696,-0.0202 -0.437689,-0.37997 -0.240729,-0.3598 -0.910052,-1.27926 -1.487384,-2.04325 -0.577333,-0.76398 -1.15201,-1.38906 -1.277062,-1.38906 -0.125052,0 -0.304408,0.30695 -0.398569,0.68212 -0.150236,0.59859 0.100265,0.94121 2.04548,2.79765 1.745895,1.66623 1.90762,1.87453 0.761474,0.98077 -0.800365,-0.62411 -1.901693,-1.55003 -2.447396,-2.05759 -0.545703,-0.50757 -0.992187,-1.12767 -0.992187,-1.37801 0,-0.25035 0.311905,-0.82585 0.693123,-1.2789 0.381217,-0.45306 1.110133,-0.99797 1.619812,-1.21093 0.509679,-0.21296 1.394474,-0.38719 1.966211,-0.38719 0.92342,0 1.079785,0.0964 1.400018,0.86278 0.198272,0.47454 0.489853,1.79284 0.647957,2.92956 0.158104,1.13673 0.287462,2.65348 0.287462,3.37055 0,0.95879 -0.100883,1.30377 -0.38126,1.30377 -0.209693,0 -0.442388,-0.0989 -0.517099,-0.21979 z m 0.305384,-3.0698 c -0.118922,-1.37272 -0.372789,-2.95029 -0.564149,-3.50573 -0.276704,-0.80316 -0.499221,-1.02774 -1.087009,-1.09712 -0.527496,-0.0623 -0.701822,0.0135 -0.608929,0.26458 0.07158,0.1935 0.315527,0.94713 0.542096,1.67474 0.226569,0.7276 0.664057,2.18612 0.972196,3.24114 0.308138,1.05503 0.650648,1.91823 0.761133,1.91823 0.110485,0 0.103583,-1.12313 -0.01534,-2.49584 z m 2.021536,-1.14601 c 0.06846,-2.39052 0.212004,-3.64391 0.450192,-3.93091 0.26563,-0.32006 0.629063,-0.38305 1.511938,-0.26204 0.66916,0.0917 1.429266,0.41242 1.791626,0.75591 0.346156,0.32813 0.631431,0.88281 0.633945,1.23263 0.0025,0.34982 -0.430251,1.42138 -0.961701,2.38125 -0.531449,0.95987 -1.1944,2.07264 -1.473224,2.47282 -0.278825,0.40019 -0.629599,0.72761 -0.779499,0.72761 -0.177139,0 -0.208164,-0.55471 -0.08863,-1.58464 0.101154,-0.87155 0.398628,-2.41936 0.661054,-3.43958 0.477138,-1.85495 0.477138,-1.85495 -0.290229,-1.85495 -0.767367,0 -0.767367,0 -0.779301,2.71198 -0.0079,1.80029 -0.140476,2.97882 -0.394305,3.50573 -0.349644,0.72581 -0.373769,0.49337 -0.281866,-2.71581 z m 3.513324,-1.05777 c 0.427447,-0.72112 0.599037,-1.29351 0.475894,-1.5875 -0.146839,-0.35055 -0.402197,-0.0199 -1.075127,1.39233 -0.4854,1.01865 -0.883377,1.97115 -0.884393,2.11667 -10e-4,0.14552 0.181978,0.0265 0.406653,-0.26459 0.224675,-0.29104 0.709313,-1.03665 1.076973,-1.65691 z m -0.452071,-1.78267 c 0,-0.14552 -0.115417,-0.086 -0.256481,0.13229 -0.141064,0.21828 -0.25648,0.51594 -0.25648,0.66146 0,0.14552 0.115416,0.086 0.25648,-0.13229 0.141064,-0.21828 0.256481,-0.51594 0.256481,-0.66146 z"
       id="path2" /></g></svg>
